<svg xmlns="http://www.w3.org/2000/svg" viewBox="0 0 100 125" x="0px" y="0px"><path d="M50.79546,12.52689c1.07485-.01011,2.14986-.03679,3.22453-.02686,2.20922,.02041,4.40745,.19463,6.58189,.5931,2.25539,.41331,4.46906,.98031,6.57906,1.90276,2.27399,.99415,4.32952,2.3214,6.10229,4.06052,2.21229,2.17029,3.78769,4.74607,4.75961,7.68655,.52211,1.57958,.88076,3.19859,1.11466,4.84641,.27778,1.95699,.31714,3.923,.21192,5.89124-.09246,1.7296-.31185,3.44588-.70325,5.1362-.04947,.21364-.03579,.40989,.04719,.61178,.36055,.87713,.69558,1.7653,1.07618,2.63356,1.22151,2.78664,2.56248,5.51709,3.94117,8.22843,1.40398,2.7611,2.83637,5.50775,4.25148,8.26321,.09434,.18369,.16571,.38384,.21692,.58422,.28444,1.11309,.42771,2.24779,.46779,3.39393,.04466,1.27706-.13298,2.52989-.41467,3.77524-.59066,2.61138-1.9384,4.79274-3.7638,6.70498-1.31065,1.37298-2.83504,2.47832-4.44856,3.46444-1.90076,1.16167-3.92416,2.06552-6.01195,2.83171-2.25649,.8281-4.56895,1.46246-6.90882,2.00375-1.83587,.4247-3.68365,.79016-5.54669,1.06898-1.3797,.20649-2.76571,.3728-4.15101,.5395-2.03861,.24531-4.08659,.37571-6.13755,.4593-.36227,.01477-.72657,.01715-1.08843-.00248-1.28244-.06961-2.56607-.12907-3.84576-.23468-1.23752-.10213-2.47136-.25085-3.70566-.38946-1.31766-.14798-2.62668-.35619-3.93424-.57583-1.81727-.30526-3.61767-.69007-5.40733-1.12542-2.19803-.53468-4.36336-1.17791-6.47576-1.99199-2.11525-.81516-4.15503-1.78212-6.05532-3.02616-1.34662-.88157-2.62684-1.84861-3.74102-3.01729-1.30133-1.365-2.38613-2.87899-3.10661-4.63349-.51738-1.25991-.82757-2.57439-.98622-3.92458-.21097-1.79544-.03491-3.56533,.36974-5.31897,.05388-.23348,.14873-.44727,.25997-.65823,2.01759-3.82634,3.9973-7.67208,5.89229-11.5608,1.02072-2.09461,2.02557-4.19697,2.90685-6.35539,.16865-.41306,.31554-.83497,.47566-1.25157,.05166-.1344,.05851-.26154,.025-.40619-.27428-1.18395-.46584-2.38284-.58738-3.59116-.16919-1.6821-.24808-3.36756-.14865-5.05915,.05655-.96215,.13257-1.92162,.28639-2.87289,.41189-2.54708,1.06578-5.02088,2.26751-7.32354,1.84499-3.5352,4.55703-6.20963,8.0605-8.09455,1.85519-.99812,3.82517-1.68962,5.86909-2.18083,1.01766-.24457,2.04011-.46418,3.07604-.62022,.91129-.13727,1.82543-.2424,2.7437-.32113,1.68576-.14454,3.37407-.17079,5.06413-.13847,.43262,.00827,.86491,.03385,1.29735,.05148l-.00025-.02993Zm-10.81082,20.31897c-.43395-.01339-1.18905,.09655-1.68282,.21574-1.25564,.30307-2.37532,.88279-3.39581,1.66354-.97125,.74307-1.80018,1.62728-2.5485,2.58995-1.04101,1.3392-1.88874,2.79702-2.6401,4.3133-.57651,1.16341-1.05884,2.36756-1.55612,3.56609-1.49921,3.61329-3.23477,7.11042-5.22841,10.47777-1.01769,1.71893-2.11488,3.38509-3.33979,4.96471-1.11485,1.4377-2.31462,2.79543-3.7408,3.93821-.08644,.06926-.16729,.1493-.23631,.23582-.33622,.42156-.34939,1.03801-.0445,1.48547,.31798,.46668,.95162,.63404,1.36617,.49379,.21752-.07359,.40153-.18879,.57606-.33042,1.12066-.9094,2.12248-1.93844,3.05691-3.03503,1.29728-1.52241,2.45091-3.14994,3.51937-4.83838,2.29587-3.62809,4.24139-7.44018,5.94901-11.37564,.40525-.93396,.77189-1.88463,1.17291-2.82048,.68269-1.59317,1.46828-3.13294,2.43764-4.57397,.55449-.8243,1.16483-1.60355,1.8761-2.30003,.61156-.59883,1.27741-1.12617,2.04233-1.51822,1.313-.67295,2.67904-.81959,4.10155-.40819,1.33025,.38471,2.46131,1.10653,3.46714,2.04021,.09075,.08424,.16749,.18732,.23566,.2915,.45309,.69252,1.05524,1.22202,1.77002,1.62923,.79589,.45342,1.65196,.74159,2.54703,.92175,.42519,.08558,.85395,.16319,1.28794,.12015,1.20881-.11989,2.35347-.45804,3.41143-1.06246,.70123-.40062,1.28962-.92718,1.73369-1.60825,.06797-.10424,.14621-.20593,.23665-.29073,.9489-.88979,2.0205-1.58219,3.26532-1.98286,1.55866-.5017,3.05561-.34736,4.48709,.44817,.47793,.2656,.91783,.58439,1.33323,.93828,.76985,.65586,1.4241,1.41651,2.01688,2.23201,.86454,1.18934,1.57682,2.46786,2.21667,3.78894,.52343,1.08072,.95546,2.20017,1.41875,3.30666,1.52705,3.64707,3.2832,7.18065,5.30025,10.58261,1.25426,2.11545,2.61221,4.16052,4.17779,6.06184,1.00484,1.22033,2.08551,2.3669,3.30975,3.37216,.1185,.09731,.23509,.20141,.36709,.277,.46971,.26902,.94271,.25344,1.37692-.06537,.43242-.3175,.59488-.7579,.48317-1.29095-.06643-.31702-.25007-.55354-.49754-.75103-.99701-.79561-1.87975-1.70727-2.7069-2.67467-1.30008-1.52051-2.45014-3.15052-3.51198-4.84321-2.3116-3.68496-4.25323-7.56092-5.95099-11.56197-.44674-1.05281-.87169-2.11548-1.34397-3.1567-.6755-1.48926-1.47074-2.91434-2.41333-4.25411-.66865-.9504-1.40955-1.83866-2.26353-2.6293-.77289-.71557-1.6209-1.32326-2.57479-1.77699-1.72784-.82187-3.52193-1.0257-5.3831-.564-1.99264,.49431-3.65957,1.55069-5.10443,2.98293-.09796,.09711-.18768,.21021-.25303,.33111-.22754,.42099-.57707,.71242-.97771,.95193-.47158,.28192-.98883,.44696-1.51489,.59331-.57972,.16128-1.15329,.16202-1.73301,.00077-.52599-.1463-1.04361-.31061-1.51544-.59215-.40092-.23923-.74408-.53546-.98168-.94951-.09549-.16642-.23015-.31588-.36815-.45154-1.03617-1.01868-2.21815-1.82469-3.55599-2.39534-1.07757-.45963-2.20173-.70835-3.47687-.71351Zm-3.56269,12.05058c-3.97943-.0306-7.30282,3.21655-7.31218,7.27908-.00917,3.98009,3.20882,7.30224,7.28609,7.30948,4.07806,.00724,7.30713-3.30408,7.31217-7.28338,.00515-4.06325-3.30737-7.32159-7.28607-7.30517Zm28.69051-.00016c-3.79261-.03622-7.29716,3.00584-7.30178,7.28749-.00454,4.20557,3.40626,7.30081,7.29207,7.3035,3.88407,.00269,7.30054-3.08657,7.30177-7.2938,.00125-4.28134-3.49929-7.32833-7.29206-7.29719Zm-9.887,17.80352c.00878-.15959,.02119-.29629,.02303-.43313,.01113-.82446-.05147-1.64491-.17121-2.45944-.10963-.74576-.28284-1.47785-.56227-2.18144-.21749-.54764-.49047-1.06333-.87177-1.5161-.5309-.63043-1.1931-1.03655-2.01123-1.1845-.43015-.07779-.86238-.06381-1.2934-.04788-.81066,.02996-1.5196,.32355-2.12043,.8719-.32235,.29418-.58277,.63752-.80174,1.01316-.26811,.45996-.46828,.94932-.62155,1.45824-.42268,1.4034-.54729,2.84243-.5093,4.30029,.00168,.06432,.02958,.12796,.04303,.18279,.39316,.04669,8.49593,.04627,8.89685-.00388Zm-10.07865,1.91128c-.05263,.15428-.02946,.32225-.02952,.48634-.00144,3.53178-.0011,7.06356-.00107,10.59534,0,.09771-.00545,.19593,.00258,.293,.00648,.07839,.02946,.15542,.04891,.25179,1.5403,0,3.06103,.0003,4.58176-.00126,.05285-.00005,.10567-.0186,.17886-.03236,.01038-.11557,.0272-.22375,.02881-.33216,.05369-3.63197,.02331-10.89774-.04998-11.27723-.0863-.01175-.17953-.0333-.27329-.03591-1.75878-.04882-4.12619-.02182-4.48704,.05245Zm6.47224-.02133c-.05669,.18161-.03603,.34917-.03609,.51346-.0012,3.52826-.00092,7.05652-.00088,10.58478,0,.09762-.0053,.1957,.00245,.29271,.0063,.07887,.02847,.15648,.04269,.22996,.06288,.01123,.10351,.02478,.14415,.02482,1.47866,.00158,2.95732,.00243,4.43599,.00068,.06452-.00008,.129-.02559,.2103-.04282,.00385-.17092,.01013-.32231,.0102-.47369,.00075-1.45036,.00046-2.90071,.00046-4.35106,0-2.1058,.0009-4.2116-.00195-6.3174-.0002-.14921,.03769-.30621-.04423-.44524-.34356-.06748-2.26586-.08849-4.43264-.04777-.10773,.00202-.21516,.02016-.33044,.03156Zm-11.84449,11.61652c.50756,.05376,3.20313,.04312,3.52871-.01204,.01059-.05949,.03275-.12578,.03272-.19207-.00153-3.46056-.00485-6.92112-.01038-10.38167-.00003-.01916-.03373-.03827-.06693-.0736-.06452,.07084-.13319,.13633-.19049,.21059-1.04857,1.35891-2.0928,2.72119-3.14708,4.07565-.1308,.16804-.17041,.33645-.16995,.53932,.0041,1.82808,.00207,3.65618,.00325,5.48427,.00007,.10901,.01225,.21801,.02016,.34955Zm21.99777-.0132c.00728-.092,.01741-.16042,.01744-.22883,.00098-1.88424-.0014-3.76848,.00478-5.65271,.0006-.18154-.05874-.32067-.16513-.45695-.35213-.45107-.69995-.9055-1.04919-1.35882-.68146-.88451-1.36182-1.76988-2.04539-2.65275-.08004-.10338-.13969-.23413-.3165-.304-.00636,.1817-.01603,.32986-.01607,.47803-.00086,3.22415-.00066,6.44829-.00063,9.67244,0,.0977-.00547,.19588,.00253,.29294,.00649,.07884,.02936,.15634,.04362,.2277,.47099,.04887,3.17597,.03842,3.52453-.01705Zm-28.82231-.58165c-.0286,1.25474,.98715,2.50096,2.49511,2.50955,1.38835,.00791,2.53523-1.08551,2.52189-2.52949-.0137-1.48194-1.21328-2.49579-2.52093-2.48908-1.44831,.00742-2.52216,1.20614-2.49607,2.50902Zm35.64069,.00587c.00226-1.39012-1.10264-2.50387-2.49341-2.51341-1.38436-.00949-2.51818,1.10215-2.53125,2.48172-.01324,1.39699,1.12408,2.5421,2.52047,2.53774,1.38736-.00433,2.50194-1.11973,2.50419-2.50605Zm-20.45626-32.73162c.09446,.01386,.13519,.02504,.17594,.02507,1.63206,.00118,3.26411,.00179,4.89617,0,.06458-.00007,.12914-.02427,.21839-.04218,0-.18351,.00358-.34914-.00102-.51454-.00453-.16296,.02465-.33056-.03256-.48142-.39853-.06479-3.3768-.0901-4.99263-.04423-.08038,.00228-.16031,.02048-.24927,.03246-.05786,.34594-.03849,.67369-.01502,1.02485Zm5.27635,3.1961c-.47244-.02282-.90302-.00884-1.33306-.01134-.43248-.00252-.86497-.00055-1.29746-.00055-.44644,0-.89297-.00557-1.3393,.0016-.42798,.00687-.85808-.0321-1.31954,.02929,.01575,.3573-.0604,.69656,.04621,1.02903,.06548,.01114,.10581,.02397,.14615,.02399,1.63229,.00119,3.26457,.00177,4.89686-.00064,.06426-.00009,.12846-.03003,.20015-.04793v-1.02345Zm-5.29528,2.1461c0,.18489-.00356,.35128,.00101,.51745,.00447,.16257-.02475,.3303,.03314,.47199,.05298,.02077,.07798,.0391,.10302,.03916,1.59003,.00392,3.18008,.00658,4.77012,.00836,.09735,.00011,.19473-.00737,.29204-.01244,.01305-.00068,.02696-.00593,.03828-.01272,.0117-.00702,.02071-.01849,.05254-.04824,.01705-.3183,.06181-.65704-.02614-.98771m-5.2443,3.1444c.09021,.01027,.15668,.02439,.22317,.02444,1.60418,.00125,3.20836,.00162,4.81253-.00085,.07783-.00012,.15561-.02745,.25402-.04599,0-.18572,.00387-.35172-.0011-.51744-.00487-.16242,.02655-.33031-.04473-.50285-.09522-.0066-.17651-.0171-.25781-.01715-1.57628-.0009-3.15255-.00111-4.72883,.00106-.07983,.00011-.15964,.02291-.26616,.03925-.01098,.34295-.02534,.67086,.00892,1.01954Zm5.2751-7.35729c-.08828-.01769-.12877-.03284-.16928-.03291-1.60189-.00261-3.20379-.00404-4.80569-.00462-.06926-.00003-.13856,.00909-.20775,.0149-.01349,.00113-.02815,.00415-.03944,.01098-.01146,.00694-.0194,.01968-.05998,.06332-.01238,.29365-.04013,.62068,.0225,.96038,.09236,.01185,.17359,.03128,.25484,.03137,1.57407,.00181,3.14814,.00212,4.7222-.00057,.09138-.00016,.18272-.02845,.28991-.04629,.00592-.33863,.01947-.65496-.00733-.99658Zm-.00199,8.47239c-.06896-.02341-.09461-.03895-.12079-.03988-.15298-.00544-.30609-.01056-.45914-.01015-1.53193,.00406-3.06387,.00919-4.5958,.01442-.01362,.00005-.02855,.00299-.04048,.00919-.01183,.00615-.02065,.01811-.06203,.05652-.02052,.29961-.03533,.62691,.01595,.97046,.10614,.01169,.20112,.03118,.29613,.03128,1.56014,.00182,3.12028,.00192,4.68042-.0007,.09229-.00015,.18453-.02654,.28574-.0421v-.98904Z"/><path d="M33.9498,57.75051c.49321-.61617,.71058-1.28991,.62021-2.04857-.06471-.54326-.28712-1.01712-.65655-1.4195-.43271-.47129-.97204-.74448-1.60527-.81964-.61784-.07332-1.19123,.07648-1.74069,.41591-.04253-.08946-.08813-.15648-.10753-.23035-.82823-3.15403,1.09442-6.69911,4.6606-7.4735,.95541-.20746,1.91341-.18014,2.86104,.072,.10347,.02753,.20228,.07261,.31893,.11528-.8667,1.34629-.90689,2.65748,.06309,3.94623,1.15441,1.26175,2.51259,1.42757,4.02265,.72707,.46675,1.91659-.26319,4.33078-2.05125,5.83115-2.03796,1.71007-4.75099,1.68399-6.38524,.88393Z"/><path d="M62.69231,57.74954c.4924-.61989,.71041-1.29333,.61781-2.05251-.06623-.54301-.28899-1.01663-.6594-1.41823-.43373-.47026-.97336-.74243-1.60684-.81652-.61807-.0723-1.19108,.07876-1.73886,.41856-.04219-.09317-.08602-.16207-.10564-.23727-.84293-3.23093,1.19158-6.77839,4.74891-7.4846,.94583-.18777,1.8875-.15288,2.81962,.09792,.07969,.02144,.15611,.05497,.24596,.08715,.00581,.14562-.09986,.22864-.15907,.32957-.51988,.88616-.61674,1.81609-.25144,2.77496,.62387,1.63753,2.48376,2.4252,4.10807,1.75595,.13867-.05714,.27673-.11576,.41879-.17525,.46594,2.00017-.30388,4.40903-2.12312,5.89363-2.04659,1.67014-4.7424,1.60857-6.31479,.82663Z"/></svg>