<svg xmlns="http://www.w3.org/2000/svg" viewBox="0 0 100 125" x="0px" y="0px"><path d="M38.4057,83.35061c-.07715,.02214-.15693,.04256-.23512,.06786-1.38722,.44895-2.80395,.77445-4.24086,1.0164-.79036,.13309-1.5867,.21318-2.38503,.27733-.23163,.01861-.46008,.01575-.68379-.06004-.08002-.02711-.16388-.04591-.24748-.05902-.63116-.099-1.02896-.50925-1.33936-1.02173-.08494-.14024-.11243-.31524-.16722-.47705-.12866-.05135-.24379,.01113-.35646,.03505-.64403,.13671-1.2946,.19927-1.95209,.18872-.71909-.01153-1.42768-.10633-2.11906-.3058-.31049-.08957-.56233-.28984-.77069-.52629-.22429-.25453-.41707-.53588-.45323-.89387-.00937-.09276-.05407-.18196-.08806-.2904-.13093,.03007-.24676,.0564-.36246,.08328-.53139,.12343-1.06172,.25173-1.59461,.36831-.22466,.04915-.45387,.08092-.68253,.10756-.26571,.03096-.53222,.0446-.79242-.0482-.07945-.02834-.16382-.04606-.24743-.05903-.63175-.09804-1.0242-.51183-1.34175-1.02001-.04996-.07995-.07427-.17869-.09782-.27192-.18721-.74111-.19027-.74234-.00362-1.49075,.04048-.16231,.10609-.32263,.18544-.47027,.44237-.82312,.85429-1.66072,1.2254-2.51829,.04733-.10937,.08791-.22165,.14065-.35551-.09356-.03493-.16707-.07117-.24481-.08995-.40722-.09832-.71378-.34088-.97372-.6578-.19645-.23951-.33468-.5017-.37954-.81224-.01898-.13139-.07058-.25808-.08954-.38948-.01529-.10598-.02038-.21893-.00079-.32332,.04244-.22613,.09442-.45149,.16043-.67179,.04124-.13765,.10716-.2698,.17562-.39711,.81727-1.51979,1.5173-3.0895,2.06663-4.72736,.35502-1.05851,.53124-2.13871,.50736-3.25372-.00283-.13225,.01487-.26559,.03077-.3975,.10739-.89095,.22713-1.78054,.32281-2.67272,.09958-.92854,.18554-1.85876,.26071-2.7896,.06444-.79799,.11442-1.59742,.15466-2.39703,.10737-2.13376,.13504-4.2691,.07286-6.40458-.04167-1.43115-.12124-2.86175-.29351-4.28333-.13896-1.14664-.21587-2.29332-.20276-3.44797,.02626-2.31405,.30916-4.59551,.83984-6.84745,.26427-1.12143,.54637-2.23735,.91617-3.33002,1.07789-3.18484,2.78164-5.99701,5.04786-8.47256,.82167-.89756,1.73862-1.69116,2.71552-2.4169,1.26932-.94297,2.59686-1.78806,4.03097-2.46207,1.62025-.76148,3.30664-1.32772,5.04669-1.74001,.94395-.22366,1.88749-.4478,2.84594-.60521,.94624-.1554,1.89602-.27461,2.85124-.35967,1.39219-.12398,2.7863-.16911,4.18259-.12551,2.4689,.0771,4.90687,.38674,7.30973,.97134,1.29738,.31564,2.5841,.66111,3.83335,1.13694,1.81214,.69023,3.50992,1.59076,5.08889,2.71941,1.04881,.74969,2.05388,1.54833,2.96078,2.46677,.51212,.51864,.99284,1.0646,1.44921,1.63286,2.25449,2.80722,3.78955,5.96626,4.6393,9.46179,.25493,1.04863,.50944,2.0971,.68442,3.16309,.15331,.93409,.26578,1.8725,.34051,2.81633,.06137,.77505,.07551,1.55081,.08374,2.32737,.01081,1.02101-.06715,2.03561-.1881,3.04885-.07761,.65012-.1388,1.30288-.18378,1.95608-.14507,2.10755-.19286,4.21808-.13784,6.32983,.04235,1.62517,.10854,3.24968,.25009,4.86999,.08023,.91832,.15046,1.83775,.2476,2.75431,.09327,.88016,.21704,1.75708,.32344,2.63589,.02033,.16794,.03258,.33823,.03089,.50726-.01051,1.05202,.14311,2.07648,.47103,3.07809,.5527,1.68822,1.2667,3.30548,2.11796,4.86255,.20331,.37187,.2499,.78165,.34376,1.18084,.01565,.06659-.00531,.14476-.02067,.21511-.04916,.22502-.0882,.45396-.15984,.67196-.10012,.30476-.29463,.55822-.53421,.76491-.2479,.21388-.5168,.4048-.86167,.43889-.03261,.00322-.06273,.03153-.09764,.05012-.03801,.10724,.03278,.18892,.0685,.27253,.37194,.87043,.77592,1.72629,1.23952,2.5515,.21416,.3812,.26479,.80181,.36552,1.21171,.01105,.04497,.00501,.09747-.00526,.1438-.06032,.27221-.08872,.55891-.19721,.8109-.10306,.23937-.26054,.47456-.44952,.65292-.24304,.22939-.51513,.44929-.87746,.48115-.57022,.21207-1.14814,.15382-1.72226,.03217-.59291-.12563-1.18125-.27279-1.77173-.40993-.08002-.01858-.16085-.03367-.26306-.05489-.04096,.15524-.08646,.29226-.11241,.4329-.06755,.36614-.29199,.64056-.54856,.87831-.24816,.22996-.54356,.38096-.88956,.4632-1.27442,.30293-2.54619,.31532-3.82468,.04743-.105-.022-.21124-.03812-.3331-.05986-.02733,.06098-.06059,.11202-.07356,.16778-.10096,.43417-.36052,.75448-.70503,1.02293-.22557,.17578-.47729,.26653-.75065,.34409-.44358,.12587-.88338,.13427-1.33258,.07803-.66182-.08286-1.32698-.14428-1.98524-.24924-1.43879-.2294-2.85439-.56256-4.24106-1.01342-.06903-.02244-.13937-.04089-.2281-.06673-.03025,.06174-.0614,.12377-.09124,.18644-.14175,.29773-.32291,.56379-.58223,.77536-.2593,.21156-.54366,.35868-.87811,.40549-.09561,.01338-.18971,.04092-.28283,.0678-.16644,.04804-.32965,.04857-.50147,.01501-1.38209-.26999-2.75898-.55723-4.04619-1.15689-.26364-.12283-.52849-.24721-.77775-.39603-1.12921-.67417-2.19909-1.42608-3.08411-2.41313-.03225-.03597-.06869-.06833-.10452-.10088-.00829-.00754-.02213-.00899-.05833-.02264-.05854,.05517-.1283,.11616-.19274,.18231-1.58945,1.63189-3.44059,2.8319-5.6623,3.41275-.73879,.19316-1.47911,.38366-2.23585,.49836-.04796,.00727-.0975,.03198-.14271,.02509-.40563-.06186-.81816-.10744-1.18381-.31244-.32324-.18123-.57749-.44032-.76384-.76112-.07159-.12323-.12702-.25584-.19989-.40475Zm30.79964-44.47974c-.03317-.0508-.03752-.06612-.04683-.07024-.04426-.0196-.08956-.03696-.13503-.05368-2.43787-.89621-4.93992-1.49764-7.53945-1.67011-1.20505-.07995-2.40123-.0358-3.59179,.16209-1.24483,.20691-2.42138,.6049-3.50431,1.26216-.05825,.03536-.12032,.06441-.1988,.10603-.01566-.13049,.04449-.21024,.08284-.29471,.29643-.65282,.64484-1.27756,1.02839-1.88269,.90317-1.42496,1.97816-2.70012,3.29979-3.75752,1.31785-1.05437,2.78594-1.80612,4.44341-2.15851,.43766-.09305,.88643-.1335,1.3297-.20081,.111-.01686,.23863,.01776,.35013-.10495-.15091-.0379-.27858-.07228-.40734-.10194-1.14991-.26491-2.31375-.42234-3.49379-.46399-1.04719-.03696-2.08567,.02411-3.11351,.23663-1.50692,.31158-2.85601,.92704-3.94929,2.03932-.02616,.02661-.05381,.08379-.13054,.02931,.02831-.06057,.05264-.12577,.08733-.18488,.5285-.90057,1.09349-1.77724,1.72215-2.61178,.3654-.48507,.75067-.9536,1.17919-1.3849,.36892-.37131,.76069-.71425,1.22298-.96833,.03203-.0176,.05505-.05157,.09641-.09163-.0559-.00739-.08121-.01774-.10275-.01253-.28274,.06843-.56707,.13148-.84691,.21038-1.5547,.43831-3.00807,1.09309-4.31514,2.05086-1.69626,1.24296-2.89792,2.84722-3.52394,4.86558-.14744,.47537-.25896,.95968-.33083,1.45282-.0114,.07826,.00831,.17699-.11141,.21457-.0099-.06171-.01964-.12075-.02881-.17989-.13066-.84268-.35148-1.66-.69092-2.44356-.71873-1.65914-1.8512-2.97794-3.32043-4.01589-1.50792-1.06529-3.18486-1.74332-4.97834-2.1489-.03507-.00793-.09147-.03774-.11648,.05234,.3692,.20331,.71664,.44688,1.01656,.74718,.3255,.32592,.64981,.65563,.94585,1.00787,.88487,1.05285,1.62606,2.20584,2.3146,3.39351,.02433,.04197,.08434,.08771,.03943,.15331-.01598-.00602-.02952-.00767-.03821-.01504-.02768-.02346-.05492-.04775-.07996-.07398-.841-.88112-1.86376-1.46598-3.0154-1.83421-1.22656-.39218-2.49132-.51792-3.77216-.49871-1.20448,.01807-2.39551,.16589-3.57321,.41829-.20855,.04469-.41429,.10246-.65167,.16177,.13443,.11127,.2611,.0883,.37757,.10319,.3007,.03843,.60419,.06052,.9022,.11361,1.70542,.30379,3.23408,1.00852,4.60815,2.05555,1.43665,1.09471,2.59103,2.44344,3.55289,3.96375,.3961,.62607,.75312,1.27371,1.05626,1.95016,.02583,.05762,.08884,.12108-.00024,.19528-.05997-.03522-.12248-.07089-.18398-.10821-1.05112-.63791-2.19522-1.02229-3.39989-1.23571-1.42016-.25159-2.8495-.26547-4.28121-.13078-1.25785,.11834-2.49967,.33767-3.72577,.64218-1.09536,.27204-2.17548,.59477-3.23012,.99889-.04981,.01909-.12854,.01569-.11582,.10626,.02196,.00935,.04227,.0252,.06302,.02578,.69667,.01971,1.32877,.25922,1.93715,.57373,.81358,.42059,1.54336,.96151,2.22509,1.56952,.03354,.02991,.08019,.0596,.05203,.13824-.07281,.00695-.15384,.01767-.23521,.022-.76463,.0407-1.5233,.1246-2.26858,.30777-2.37741,.58431-4.37928,1.80787-6.06172,3.56966-.31361,.3284-.27721,.21839-.23834,.70623,.06167,.77387,.13727,1.54685,.18469,2.32157,.09048,1.4782,.1145,2.95874,.09082,4.4392-.0192,1.20091-.04434,2.40245-.10486,3.60179-.0599,1.187-.15705,2.37247-.25743,3.55696-.07474,.88201-.18107,1.76134-.27226,2.64197-.01233,.11908-.01839,.23881-.0265,.34703,.03847,.02548,.05661,.04668,.0776,.05003,.3948,.06293,.58016,.32761,.64935,.69017,.04073,.21343,.06984,.43126,.07893,.64816,.03066,.7312-.07166,1.45215-.18799,2.1714-.02097,.12963-.06676,.25876-.02384,.39264,.12604,.03427,.21181-.0493,.30413-.09745,.62771-.32742,1.19481-.74231,1.72066-1.21406,.85388-.76604,1.5891-1.63452,2.22381-2.58898,.05373-.0808,.10155-.1663,.16194-.24175,.32039-.40028,.8884-.3247,1.09458,.14701,.04333,.09914,.07022,.20672,.09443,.31275,.12055,.5281,.09353,1.06258,.04398,1.59421-.05968,.64026-.16855,1.27402-.30881,1.90206-.01172,.05247-.00615,.10882-.00973,.18822,.07011-.03528,.11617-.05152,.15444-.07871,1.22177-.86815,2.3531-1.83671,3.3076-2.99898,.37797-.46025,.72445-.94277,.98769-1.48036,.03181-.06497,.06762-.1299,.11234-.18632,.16654-.21008,.43678-.28836,.68506-.20434,.27307,.09242,.44569,.32041,.42808,.60537-.00797,.12897-.04509,.26556-.10481,.38001-.14004,.26839-.2913,.53227-.45661,.78586-.41884,.64253-.91275,1.2259-1.44499,1.77674-1.28215,1.32695-2.75041,2.416-4.32345,3.37024-.06184,.03752-.12893,.06674-.19475,.0973-.34189,.1587-.84598-.11773-.84266-.57829,.00068-.09513,.02451-.19156,.048-.28479,.09184-.36444,.1971-.72573,.27999-1.09212,.11234-.49656,.21279-.99593,.309-1.49589,.02337-.12144,.06235-.2516-.00046-.41763-.07981,.08845-.13293,.14991-.18878,.20879-.28386,.29927-.56026,.60619-.85445,.89498-.61723,.60591-1.29381,1.1376-2.04512,1.56964-.58105,.33413-1.19327,.59212-1.84428,.76054-.22734,.05881-.42945,.04643-.62468-.08351-.0266-.01771-.06122-.02338-.10826-.04049-.02746,.06338-.05427,.11548-.07307,.17031-.08648,.2523-.16707,.50668-.25639,.75795-.49659,1.39695-1.10938,2.74215-1.80619,4.05004-.06031,.11319-.158,.2148-.1494,.38391,.15397-.00835,.30048-.00206,.44163-.02659,.42977-.07468,.86283-.14017,1.285-.24714,1.28519-.32566,2.44909-.91792,3.53929-1.66172,.86516-.59026,1.65801-1.2663,2.38269-2.02269,.06154-.06423,.10256-.17074,.25138-.14831-.04627,.28786-.08342,.57568-.14071,.85942-.0575,.2848-.12402,.56885-.20699,.84715-.083,.27836-.17961,.55406-.29165,.82198-.11676,.27922-.24794,.55386-.3934,.81922-.13965,.25476-.29522,.50247-.46305,.73966-.16785,.23722-.3592,.45786-.54089,.68526-.17742,.22204-.41938,.38635-.60711,.64767,.1024,.02272,.16992,.04427,.23896,.05167,.14475,.01549,.29069,.01994,.43548,.03522,.79165,.08356,1.57921,.03374,2.35454-.12536,2.1431-.43977,3.7621-1.61379,4.84834-3.51621,.03447-.06036,.07425-.11768,.12271-.19396,.13692,.20242,.10263,.39758,.07343,.58623-.0522,.33726-.15251,.66397-.2979,.97122-.23325,.49292-.46145,.99093-.73606,1.46093-.39136,.66981-.82318,1.31596-1.23649,1.97299-.04882,.0776-.08994,.16005-.1458,.26029,.21431,.03543,.39474,.01162,.5728-.00715,.55489-.05849,1.10991-.1176,1.66307-.19025,1.22935-.16146,2.43681-.42528,3.615-.81363,1.15748-.38153,2.26164-.87634,3.26478-1.57796,.62027-.43383,1.18431-.92736,1.6297-1.54607,.02408-.03345,.06617-.05393,.14615-.11684-.01314,.19925-.01296,.34287-.03358,.48345-.08514,.58053-.28602,1.12669-.50998,1.66508-.27049,.65024-.58755,1.2779-.92271,1.89689-.04979,.09196-.13774,.17256-.1141,.30803,.15788,.01556,.31097-.01621,.46376-.04733,.16635-.03388,.33254-.06865,.49817-.10585,.15378-.03452,.30741-.07013,.45985-.11006,.15246-.03994,.30427-.08293,.4547-.12991,.16203-.0506,.32304-.10487,.48282-.1622,.14833-.05322,.29519-.11075,.44135-.16974,.14618-.059,.29209-.11909,.43556-.18433,.15454-.07027,.3075-.14439,.45858-.22182,.14028-.0719,.27856-.148,.41519-.22666,.13664-.07867,.27161-.16049,.40461-.24518,.133-.0847,.26461-.1719,.39327-.26303,.13858-.09816,.27484-.19984,.40876-.30429,.12434-.09699,.24621-.19739,.36557-.30045,.11937-.10308,.23655-.20894,.3505-.31796,.12272-.11741,.24282-.23778,.35986-.36085,.10867-.11427,.21407-.23187,.31677-.35155,.10268-.11968,.20283-.24175,.29929-.36648,.10389-.13433,.20498-.27103,.30219-.41026,.09023-.12925,.17626-.26164,.2595-.39553,.08322-.13388,.16382-.26961,.23983-.40769,.08184-.1487,.15564-.3018,.23548-.45163,.06939-.1302,.10168-.28219,.21953-.42012,.04709,.09535,.08042,.15858,.11008,.22349,.62657,1.37164,1.53707,2.5225,2.70724,3.46942,1.39755,1.13092,3.00216,1.81234,4.75317,2.16956,.22222,.04533,.44391,.11356,.7055,.08779-.03895-.08951-.06704-.16496-.10355-.23611-.21033-.41002-.43176-.81462-.63212-1.22942-.27971-.57907-.52952-1.17109-.7079-1.79102-.0842-.29262-.1402-.5897-.15941-.89333-.00361-.05706-.00814-.12357,.07524-.13998,.18955,.21884,.37076,.44668,.57132,.65597,.53293,.55609,1.15217,1.00195,1.81585,1.38873,1.03388,.60251,2.14062,1.02852,3.28807,1.35488,1.0638,.30257,2.14799,.50755,3.24407,.64598,.5534,.0699,1.11064,.10972,1.66647,.15956,.06601,.00592,.14316,.03113,.21133-.05915-.05908-.09265-.12035-.19355-.18625-.29134-.59023-.87583-1.16075-1.76403-1.62407-2.71493-.1696-.34809-.3195-.70739-.45276-1.07096-.07851-.21419-.11606-.4452-.15474-.67159-.033-.19312-.0132-.23404,.10319-.44018,.05347,.09005,.10256,.17114,.15016,.2531,.88887,1.53046,2.16135,2.60083,3.83692,3.18002,1.25217,.43284,2.54,.49825,3.84583,.3402,.04459-.0054,.08681-.03047,.15654-.05606-.24888-.26142-.49228-.49348-.70727-.7494-.2258-.26878-.43906-.55086-.63065-.84481-.18492-.28371-.35016-.58282-.49652-.88835-.14634-.30548-.27407-.6221-.38149-.94335-.11128-.33277-.19955-.67442-.27785-1.01676-.12109-.52945-.13734-.80492-.0807-.99321,.09008,.09059,.17469,.17419,.25765,.25938,.99689,1.02371,2.109,1.89887,3.3589,2.59453,1.14519,.63738,2.35873,1.07668,3.66426,1.24316,.17866,.02279,.3575,.05179,.5602,.01519-.11509-.33372-.31098-.61209-.4543-.91532-.13991-.29601-.29158-.58646-.43119-.8826-.14476-.3071-.28554-.61624-.42018-.92789-.13464-.31162-.264-.6257-.38745-.94192-.11902-.30488-.23152-.61247-.33952-.92144-.11078-.3169-.21262-.63692-.32838-.98577-.05349,.0534-.08932,.08221-.11665,.11759-.20215,.2617-.4587,.34067-.77378,.23962-.21918-.07029-.44314-.12678-.6595-.2046-.97163-.34943-1.82417-.90016-2.61033-1.56042-.5402-.45369-1.03639-.95189-1.50022-1.48315-.04767-.0546-.07782-.15783-.20576-.11307,.01232,.10646,.02033,.21449,.03785,.32095,.14001,.85043,.34121,1.68717,.5664,2.51854,.02843,.10495,.05915,.21116,.06994,.31868,.04928,.4913-.4724,.82675-.88255,.62407-.08679-.04288-.1704-.09273-.25313-.1432-.68415-.41737-1.34874-.86375-1.98829-1.34691-1.10782-.83692-2.13142-1.76341-3.01351-2.83967-.38529-.47009-.73955-.96201-1.02753-1.49864-.06861-.12785-.13904-.2583-.1813-.39595-.08986-.2927,.05197-.60435,.31836-.73894,.28758-.14529,.61693-.06271,.80616,.20496,.03475,.04916,.06118,.10463,.08804,.15887,.23277,.46993,.52896,.89874,.8537,1.30831,.98123,1.23757,2.16319,2.25745,3.44685,3.16613,.03461,.02449,.08164,.03146,.15163,.05716-.0152-.11186-.02095-.19527-.03842-.27615-.14361-.6647-.24887-1.33544-.30577-2.01291-.0356-.42384-.04446-.84907,.04291-1.26908,.0295-.14185,.06001-.28684,.11651-.4191,.20248-.47402,.77117-.55035,1.09277-.15075,.06059,.07528,.10815,.16103,.16183,.24187,.62735,.94464,1.35395,1.80481,2.19628,2.56504,.56992,.51436,1.18699,.96279,1.87678,1.30562,.06067,.03016,.12327,.08614,.20287,.00093-.00429-.03743-.00897-.08414-.0151-.13066-.06811-.51692-.14504-1.03287-.20221-1.55099-.05338-.48372-.06063-.96947,.04235-1.44946,.12292-.57292,.36004-.7524,.96133-.71549,.00546-.15686-.01618-.31195-.03221-.46615-.07274-.69967-.14916-1.39895-.22282-2.09853-.16013-1.52076-.25814-3.04635-.32945-4.5732-.07416-1.58794-.11664-3.17748-.07997-4.76725,.02293-.99441,.06497-1.98867,.11718-2.98202,.03691-.70233,.09902-1.40359,.16326-2.1041,.01928-.21032-.03576-.36696-.17855-.52176-1.44174-1.56297-3.1468-2.72691-5.15905-3.43245-1.07354-.37641-2.18079-.56702-3.31435-.62081-.09135-.00433-.18228-.01741-.32482-.03151,.07327-.07988,.10777-.12482,.14938-.16175,.67417-.59827,1.39737-1.12748,2.19895-1.54396,.43207-.2245,.88076-.40925,1.36129-.50084,.21046-.04012,.42541-.05672,.66498-.08741Zm-20.41742,35.60161c-.08165,.09797-.1257,.15583-.17484,.20899-.98224,1.06263-2.14273,1.89184-3.41212,2.57101-.84874,.45411-1.75793,.75457-2.69368,.97475-.12793,.0301-.25847,.04988-.36851,.11282-.02055,.16246-.03575,.30643-.05737,.44942-.08585,.56788-.28546,1.10109-.50407,1.62783-.27443,.66122-.5969,1.2992-.94052,1.92686-.04432,.08095-.0774,.16806-.1337,.29198,.44203-.0306,.8297-.12196,1.21395-.22173,.37499-.09736,.74979-.20095,1.11484-.32965,.37657-.13276,.7485-.2839,1.10912-.45508,.3497-.166,.69198-.35249,1.02001-.55793,.3384-.21194,.66691-.44352,.97899-.69249,.30263-.24144,.5924-.5027,.86299-.77951,.27909-.2855,.54298-.58891,.78626-.90544,.23581-.3068,.45132-.63168,.64933-.96433,.20015-.33624,.36789-.69177,.55217-1.04333,.25536,.46035,.49097,.91005,.75031,1.34563,.26098,.43833,.5787,.8376,.91859,1.21826,.33985,.38061,.70578,.7342,1.10074,1.05764,.38534,.31556,.79183,.60066,1.21891,.85707,.43743,.26262,.88837,.50123,1.36421,.68299,.47477,.18136,.95675,.34811,1.44471,.48978,.87293,.25346,1.21559,.30058,1.49543,.24733-.05198-.09965-.09989-.19471-.15063-.28824-.37014-.68229-.71713-1.37568-1.00348-2.09793-.22404-.56509-.41193-1.13977-.45639-1.75201-.00329-.0452-.02693-.08892-.03193-.10459-.64101-.19483-1.2606-.36495-1.86731-.57266-.60862-.20837-1.18525-.49396-1.73899-.8237-.56374-.33568-1.0912-.72343-1.61293-1.11918-.51239-.38866-.96876-.83929-1.43407-1.35455Zm17.60483,8.04849c-.91958-1.37356-1.79562-2.69674-2.34938-4.20505-1.64974-.27263-3.26507-.63894-4.84572-1.15238-.02895,.04157-.05617,.06785-.06818,.09984-.13939,.3715-.36503,.67292-.68323,.91574-.22802,.17401-.4714,.29049-.75195,.33904-.11923,.02063-.23719,.05032-.35424,.0815-.15464,.0412-.3066,.04943-.46529,.01363-.23623-.05329-.47572-.09207-.71363-.13802-.15247-.02944-.30459-.06065-.50682-.10105,.06675,.11131,.10015,.18493,.14922,.24594,.31331,.38954,.67837,.72628,1.07166,1.03315,.79974,.62401,1.6847,1.09954,2.62144,1.47885,2.13632,.86504,4.37724,1.24002,6.66238,1.40095,.05717,.00402,.1153-.00553,.23372-.01215Zm-35.20303,.02427c.26031-.01414,.44193-.01443,.62113-.03541,.72258-.08461,1.44678-.15978,2.16599-.26772,1.26205-.18942,2.49652-.49537,3.69364-.94308,1.06193-.39715,2.06831-.89862,2.97421-1.58767,.44585-.33913,.8575-.71432,1.20149-1.15903,.03329-.04303,.09011-.08463,.03285-.16786-.26495,.05434-.53794,.10218-.80669,.16746-.35982,.0874-.71479,.11486-1.07092-.01438-.07923-.02876-.16424-.0423-.24723-.05983-.39955-.08439-.69654-.32727-.94672-.63063-.1669-.20238-.32158-.41688-.3899-.69211-1.60404,.52685-3.22203,.88618-4.86975,1.16376-.54733,1.51281-1.43159,2.83123-2.35808,4.22651Zm40.85808-1.56046c-.40881-.35397-.75193-.72693-1.05594-1.1345-.3128-.41936-.59273-.86076-.80277-1.33931-.20373-.46418-.37653-.94193-.56968-1.43082-.1796-.02982-.37019-.0616-.56083-.09308-.18693-.03088-.36758-.1079-.56723-.0943-.05207,.16399-.0737,.32831-.15128,.4596-.31146,.52715-.71308,.94893-1.35793,1.05207-.08355,.01337-.16726,.03237-.24736,.05929-.2237,.07516-.45221,.0795-.68362,.0594-.33837-.02941-.67674-.0589-1.01529-.08606-.05502-.00441-.11099,.00301-.18101,.00547,.02003,.12907,.10104,.18956,.16151,.25836,.85253,.96999,1.89234,1.65942,3.1216,2.05585,1.2227,.39432,2.4746,.45434,3.74219,.29801,.04378-.0054,.08463-.0345,.16764-.07Zm-44.09747-3.8964c-.03719,.10881-.07012,.1992-.0991,.29083-.42517,1.34415-1.11648,2.52264-2.16303,3.48113-.03846,.03522-.06275,.08591-.11465,.15895,.10751,.02138,.17563,.04045,.24498,.04756,.14478,.01485,.29045,.02088,.43533,.03488,.9895,.09558,1.96463,.00336,2.91949-.26015,1.37012-.3781,2.51989-1.11473,3.44937-2.19087,.0487-.05638,.14504-.10193,.08895-.22496-.05475,.00391-.11373,.00765-.17264,.0124-.37476,.03022-.74925,.06436-1.12432,.09007-.42186,.02891-.80766-.14012-1.20743-.23176-.0226-.00518-.04296-.02187-.06331-.03486-.48239-.30792-.88545-.6777-1.00036-1.27464-.00627-.03257-.03535-.06075-.06341-.10667l-1.12988,.20809Zm-1.56635,.04c-.11828-.0202-.18738-.04046-.25702-.04249-.39034-.01139-.76549-.10988-1.14577-.18396-.33062-.06441-.62274-.19522-.87237-.4158-.29346-.25933-.54399-.55037-.62338-.9518-.02783-.14071-.05425-.28222-.13479-.42388-.37722,.10505-.7559,.17394-1.09767,.28367-.03085,.05072-.04716,.06997-.05543,.09221-.51569,1.3865-1.12868,2.7285-1.83837,4.02653-.02601,.04758-.03294,.10558-.05025,.16372,1.58736,.09964,4.78582-1.23523,6.07505-2.5482Zm44.8012-.00568c.08894,.08868,.11889,.12585,.15567,.15416,1.15116,.88591,2.39769,1.59586,3.78844,2.03479,.6252,.19731,1.26497,.32936,1.91983,.37937,.07716,.00589,.16482,.03515,.2358-.04199-.34307-.69859-.69863-1.38497-1.01975-2.0871-.32623-.71329-.61847-1.44213-.93145-2.17792l-1.10228-.27493c-.03252,.10685-.07328,.19418-.08424,.2851-.04269,.35375-.22792,.63697-.45078,.89425-.19893,.22966-.43984,.43097-.73247,.51537-.44074,.12713-.8868,.24716-1.35035,.27153-.11791,.00619-.23513,.02552-.42843,.04738Z"/><path d="M33.61824,54.81905c.71245-1.03672,.77637-2.06737-.08927-3.05369-.35744-.40727-.83392-.61969-1.37143-.68134-.53762-.06165-1.03372,.07697-1.49223,.35249-.20999-.37659-.32756-1.28138-.25484-1.93096,.13193-1.17838,.56304-2.22639,1.36133-3.114,1.65125-1.83603,4.07588-2.05058,5.58618-1.47852-.00873,.12568-.10745,.20711-.16327,.30855-.5314,.9656-.53154,1.92865,.05506,2.86377,.69158,1.10249,2.082,1.53421,3.29091,1.04835,.12272-.04932,.24269-.10548,.37643-.16392,.08022,.11064,.08962,.23108,.10029,.34664,.14806,1.60334-.26102,3.03565-1.36186,4.23007-1.02822,1.11563-2.30964,1.69796-3.83754,1.72116-.67511,.01025-1.32998-.08335-1.96114-.32728-.05646-.02182-.11226-.04562-.16712-.07117-.02149-.01001-.03956-.02736-.07149-.05015Z"/><path d="M58.58093,54.81537c.39867-.52051,.60739-1.0752,.54445-1.71225-.04936-.49963-.24076-.93682-.58046-1.30608-.37645-.40919-.84528-.64634-1.39599-.71173-.53731-.0638-1.03453,.0704-1.51488,.35975-.03608-.07583-.07573-.13375-.09231-.19765-.73378-2.8274,1.05107-5.8985,4.12537-6.50969,.80963-.16096,1.61661-.136,2.41566,.07614,.08954,.02377,.17496,.06307,.27518,.0999-.75224,1.17032-.82967,2.34475,.06774,3.42,.95202,1.14068,2.17186,1.25069,3.48451,.64133,.40737,1.77207-.27376,3.76703-1.73151,5.02443-1.77502,1.53107-4.16278,1.51654-5.59776,.81586Z"/><path d="M48.38969,58.14565c-.78723-.42333-1.51749-.87586-2.16321-1.45034-.23408-.20825-.45288-.43877-.64873-.68309-.13375-.16686-.23666-.36688-.31635-.56682-.15978-.40087-.05777-.75993,.23332-1.06952,.15947-.16961,.35189-.29477,.55573-.40419,.3326-.17853,.68411-.31359,1.0485-.40311,1.44078-.35392,1.14058-.35395,2.58888,.00279,.37615,.09265,.73859,.23357,1.07967,.42241,.20246,.11209,.39287,.24097,.5462,.41649,.2593,.29683,.3527,.63496,.20936,1.01066-.06832,.17906-.15209,.35981-.26588,.51218-.16576,.22196-.35038,.43451-.55251,.62381-.68523,.64172-1.47541,1.13344-2.31497,1.58874Z"/><path d="M41.94502,60.20481c.15116,.01137,.42922,.03159,.70713,.05386,.04804,.00385,.09534,.01648,.14304,.02478,.40829,.07104,.48864,.52581,.27241,.75242-.13019,.13643-.21284,.29568-.26273,.47119-.04289,.15089-.07459,.30659-.09375,.46231-.08467,.68812-.09109,1.3782-.03436,2.06892,.03867,.47102,.08012,.9418,.11791,1.41288,.00671,.08369,.01274,.17011-.00024,.25222-.04002,.25308-.24263,.40712-.49487,.36513-.11703-.01947-.23247-.06821-.3402-.12091-1.47835-.72313-2.4427-1.87809-2.88379-3.46274-.08419-.30246-.12925-.6159-.18975-.92479-.01392-.07109-.02055-.1441-.0245-.21656-.01382-.25383,.07965-.45548,.3153-.56427,.23049-.10642,.46441-.21007,.70558-.28782,.58628-.18899,1.3139-.28907,2.06283-.28664Zm-2.16609,1.2913c.12238,.88607,.42773,1.65247,.94234,2.33232,.37023,.48909,.79637,.84742,1.08864,.93413-.06991-1.21013-.16063-2.41769,.15906-3.63468-.76614-.03039-1.4774,.04599-2.19003,.36823Z"/><path d="M55.1902,60.2028c.75629,.01032,1.39105,.09868,2.00952,.28622,.19647,.05958,.38939,.13594,.57605,.22175,.40124,.18445,.4774,.32432,.43506,.77285-.01363,.14445-.03976,.28802-.0659,.43094-.21998,1.20308-.73775,2.24993-1.6352,3.09484-.41803,.39357-.89099,.70845-1.41029,.9525-.09778,.04595-.2017,.08915-.30723,.1063-.26663,.04334-.4857-.12488-.50496-.39434-.01112-.15555,.00634-.31468,.0249-.47054,.10046-.8439,.14862-1.6904,.1179-2.53978-.01049-.29002-.03816-.58087-.0813-.86784-.04154-.2763-.13441-.5312-.32441-.7561-.25027-.29625-.11358-.65723,.26248-.75463,.04673-.01211,.09475-.02231,.14274-.02605,.28998-.02258,.58014-.043,.76064-.05615Zm2.08056,1.30099c-.54736-.2977-1.58524-.46148-2.13168-.33877,.00728,.05856,.00863,.11954,.02299,.17727,.18621,.74857,.20514,1.50975,.17295,2.27465-.01376,.32685-.0333,.65345-.048,.98027-.00252,.05603-.02653,.12166,.04195,.16022,.96401-.48009,1.92473-2.07927,1.94178-3.25365Z"/></svg>