<svg xmlns="http://www.w3.org/2000/svg" xmlns:xlink="http://www.w3.org/1999/xlink" version="1.1" x="0px" y="0px" viewBox="0 0 100 125" enable-background="new 0 0 100 100" xml:space="preserve"><g><g><g><circle cx="49.9" cy="66" r="9.9"/></g><g><g><rect x="48.2" y="10.6" width="1" height="5.6"/></g><g><rect x="51.6" y="4.5" width="1" height="11.7"/></g></g><g><path d="M59.8,66.2h-9.4v9.6C55.6,75.6,59.6,71.4,59.8,66.2z"/><path d="M32.9,66.2H20.6v3.5c1.9,14.5,14.2,25.7,29.3,25.7c0,0,0,0,0,0V82.9c0,0,0,0,0,0C40.6,82.9,33.1,75.5,32.9,66.2z"/><path d="M50.4,56.1v9.6h9.4C59.6,60.6,55.6,56.4,50.4,56.1z"/><path d="M50.4,41.1v8c9,0.3,16.3,7.6,16.4,16.7h12.6c-0.1-11.6-6.9-21.6-16.7-26.3C59.2,40.5,54.8,41.1,50.4,41.1z"/><path d="M37.5,39.2c-9,4.2-15.6,12.8-16.9,23v3.5h12.3c0-2.7,0.7-5.2,1.9-7.5l-3.6-3.6l8-8l3.8,3.8l-0.2,0.2     c2.2-1,4.6-1.6,7.1-1.6c0,0,0,0,0,0v-8C45.4,41,41,40.4,37.5,39.2z"/><path d="M65.3,73l3.7,3.7l-8,8l-3.6-3.6c-2.1,1.1-4.5,1.7-7,1.8v12.6c16-0.3,28.8-13.2,29-29.2H66.8C66.8,68.7,66.2,71,65.3,73z"/><path d="M49.9,75.9C49.9,75.9,49.9,75.9,49.9,75.9l0-9.7H40C40.1,71.6,44.5,75.9,49.9,75.9z"/><path d="M40,65.7h9.9v-9.7c0,0,0,0,0,0C44.5,56.1,40.1,60.4,40,65.7z"/></g></g><path d="M50.4,13.9c-10,0-18,8.1-18,18s36.1,10,36.1,0S60.4,13.9,50.4,13.9z M50.4,24.9c-1.9,0-3.4-1.5-3.4-3.4s1.5-3.4,3.4-3.4   c1.9,0,3.4,1.5,3.4,3.4S52.3,24.9,50.4,24.9z M57.9,30.1c-1,0-1.8-0.8-1.8-1.8c0-1,0.8-1.8,1.8-1.8c1,0,1.8,0.8,1.8,1.8   C59.6,29.3,58.9,30.1,57.9,30.1z"/></g></svg>