<svg xmlns="http://www.w3.org/2000/svg" xmlns:xlink="http://www.w3.org/1999/xlink" version="1.1" x="0px" y="0px" viewBox="0 0 100 125" style="enable-background:new 0 0 100 100;" xml:space="preserve"><path d="M33.3,58.1c0.5-0.2,1-0.3,1.5-0.3l1.7-6.1L36,51.5l0.1-0.4l-0.7-0.3l-3.6,8.3C32.3,58.6,32.7,58.3,33.3,58.1z"/><polygon points="50.1,73.3 52.1,71 51.7,70.6 49.6,73.1 "/><polygon points="45,78.5 42.9,80.9 43.3,81.3 45.3,78.9 "/><polygon points="46.3,82.3 53.6,73.8 52.1,74.6 46.8,80.7 "/><rect x="44.1" y="78.1" transform="matrix(0.6485 -0.7612 0.7612 0.6485 -41.9485 65.8043)" width="12.3" height="0.4"/><polygon points="61.1,75 61,74.9 57.4,76 58.1,76.6 "/><polygon points="49.1,85.7 48.6,89.5 48.7,89.5 49.8,86.3 "/><polygon points="54.4,79.3 51.9,82.3 53.8,83.6 56.1,81 "/><rect x="92.3" y="81.8" width="2" height="0.3"/><rect x="81.3" y="81.8" width="2" height="0.3"/><polygon points="41,88.9 41,89.8 44.2,89.8 44.2,89.7 "/><polygon points="25.1,89.7 25.1,89.8 28.3,89.8 28.3,88.9 "/><polygon points="26.6,24.9 27,33.7 27.3,33.7 27.3,24.9 "/><rect x="27.6" y="25.1" width="0.3" height="8.4"/><rect x="28.6" y="25.1" width="0.3" height="8.4"/><rect x="49.1" y="12.9" width="0.3" height="19.3"/><rect x="73.6" y="12.3" width="0.3" height="20"/><polygon points="50.8,35.2 50.8,11.1 49.7,12.9 49.7,32.3 50.3,32.3 50.3,35.2 "/><polygon points="73.4,12.2 72.3,11 72.3,35.6 72.7,35.3 72.7,32.3 73.4,32.3 "/><polygon points="90,70.9 83.2,71.9 82,75.7 84.9,78 90.1,77.3 92.2,74.2 "/><polygon points="73.3,72.3 66.5,71.2 64.2,74.5 66.4,77.6 71.5,78.4 74.4,76.1 "/><path d="M45.2,20.2h-2.8c-0.2,0-0.4,0.2-0.4,0.4v3.9c0,0.2,0.2,0.4,0.4,0.4h2.8c0.2,0,0.4-0.2,0.4-0.4v-3.9  C45.6,20.4,45.4,20.2,45.2,20.2z"/><path d="M35.8,17.5v15.8h9.3l1.3-1h2.4V13L35.8,17.5z M45.8,24.5c0,0.3-0.3,0.6-0.6,0.6h-2.8c-0.3,0-0.6-0.3-0.6-0.6v-3.9  c0-0.3,0.3-0.6,0.6-0.6h2.8c0.3,0,0.6,0.3,0.6,0.6V24.5z"/><path d="M71.1,19.9h-2c-0.2,0-0.4,0.2-0.4,0.4v2.9c0,0.2,0.2,0.4,0.4,0.4h2c0.2,0,0.4-0.2,0.4-0.4v-2.9C71.5,20,71.3,19.9,71.1,19.9  z"/><path d="M71,24.3H53c-0.3,0-0.5,0.2-0.5,0.5v7.3c0,0.3,0.2,0.5,0.5,0.5h18c0.3,0,0.5-0.2,0.5-0.5v-7.3C71.5,24.5,71.3,24.3,71,24.3z  "/><path d="M51,10.8v24.9h21V10.8H51z M71.8,32.1c0,0.4-0.4,0.8-0.8,0.8H53c-0.4,0-0.8-0.4-0.8-0.8v-7.3c0-0.4,0.4-0.8,0.8-0.8h18  c0.4,0,0.8,0.4,0.8,0.8V32.1z M71.8,23.1c0,0.3-0.3,0.6-0.6,0.6h-2c-0.3,0-0.6-0.3-0.6-0.6v-2.9c0-0.3,0.3-0.6,0.6-0.6h2  c0.3,0,0.6,0.3,0.6,0.6V23.1z"/><rect x="77.3" y="20.5" width="3.8" height="4"/><path d="M91.1,25.2h-6.4c-0.1,0-0.2,0.1-0.2,0.2v5.2c0,0.1,0.1,0.2,0.2,0.2h6.4c0.1,0,0.2-0.1,0.2-0.2v-5.2  C91.2,25.3,91.1,25.2,91.1,25.2z"/><path d="M91.9,19l-17.7-7.3v20.6h2.4l1.3,1h4.7l1.1-1.7h9.1L91.9,19z M81.3,24.7H77v-4.5h4.3V24.7z M91.5,30.6  c0,0.2-0.2,0.4-0.4,0.4h-6.4c-0.2,0-0.4-0.2-0.4-0.4v-5.2c0-0.2,0.2-0.4,0.4-0.4h6.4c0.2,0,0.4,0.2,0.4,0.4V30.6z"/><polygon points="4.7,30.3 4.1,31.6 5.5,32.8 7,29.3 "/><polygon points="16.5,25.4 15.5,24.9 11.3,25.7 10.8,26.6 "/><path d="M94,29.4l-0.5-3.2l-0.9-0.4l0.7,9.6l-8,0c1.3,1.1,2.1,2.7,2.1,4.4c0,0.8-0.1,1.5-0.4,2.2h5.4l3.1-11.6L94,29.4z"/><polygon points="8.4,36.6 8.2,35.8 6.1,35.8 6.1,36.6 "/><rect x="4" y="36.1" width="1.9" height="0.2"/><rect x="2.3" y="35.8" width="1.5" height="0.7"/><polygon points="51.5,36 56,38 57.2,41.1 69.7,41.1 72,36 "/><path d="M73.5,58.7c-0.6-0.3-1.2-0.5-1.9-0.5c-0.3,0-0.7,0-1,0.1c-1,0.3-1.8,0.9-2.3,1.8C67.9,61,67.8,62,68,62.9  c0.3,1,0.9,1.8,1.8,2.3c0.9,0.5,1.9,0.6,2.9,0.4c1-0.3,1.8-0.9,2.3-1.8C75.9,62,75.3,59.7,73.5,58.7z"/><path d="M87.5,58.8c-0.7-0.5-1.4-0.8-2.3-0.8c-0.2,0-0.4,0-0.5,0c-1,0.1-1.9,0.7-2.5,1.5c-0.6,0.8-0.9,1.8-0.7,2.8s0.7,1.9,1.5,2.5  c0.8,0.6,1.8,0.9,2.8,0.7c1-0.1,1.9-0.7,2.5-1.5c0.6-0.8,0.9-1.8,0.7-2.8S88.3,59.4,87.5,58.8z"/><polygon points="38.2,81.1 38.4,81.6 41.4,81.6 41.4,81.1 "/><polygon points="31.1,81.1 27.9,81.1 27.9,81.6 31,81.6 "/><polygon points="40.3,84.6 38.7,83.9 30.6,83.9 29,84.6 "/><rect x="28.5" y="84.8" width="12.3" height="0.4"/><rect x="32.7" y="88.8" width="3.9" height="1"/><polygon points="28.5,85.4 28.5,89.8 32.5,89.8 32.5,88.6 36.8,88.6 36.8,89.8 40.8,89.8 40.8,85.4 "/><polygon points="93.4,84.6 91.8,83.9 83.8,83.9 82.1,84.6 "/><rect x="81.6" y="84.8" width="12.3" height="0.4"/><polygon points="94.2,88.9 94.2,89.8 97.3,89.8 97.3,89.7 "/><polygon points="78.2,89.7 78.2,89.8 81.4,89.8 81.4,88.9 "/><rect x="85.9" y="88.8" width="3.9" height="1"/><polygon points="81.6,85.4 81.6,89.8 85.6,89.8 85.6,88.6 90,88.6 90,89.8 93.9,89.8 93.9,85.4 "/><polygon points="20.2,34.7 16.9,35.8 15.6,37 25.7,37 26.3,34.7 "/><rect x="24.4" y="31.9" width="1.5" height="1.5"/><rect x="9.9" y="36.3" width="0.6" height="2"/><rect x="11.4" y="36.3" width="0.6" height="2"/><polygon points="15,36.3 14.3,36.3 14.3,37.9 14.5,37.7 15,37.3 "/><rect x="12.9" y="36.3" width="0.6" height="2"/><polygon points="22.9,30.2 25.9,30.2 25.9,27.7 22,27.7 "/><path d="M26.2,23.5l-8.9,1.9l-0.1,0.5h1.9l2.3,2l1,2.6h4.2L26.2,23.5z M26.2,30.4h-3.4l-1.1-3h4.5V30.4z"/><rect x="3.3" y="33" width="7" height="0.2"/><rect x="2.8" y="32.8" width="0.3" height="0.6"/><polygon points="11,33.8 11,33.7 11,33.5 11,32.5 11,32.4 10.5,32.4 10.5,32.8 10.5,33.4 10.5,33.8 "/><path d="M12.1,27.7c-2.1,0-3.7,1.7-3.7,3.7c0,0.5,0.1,0.9,0.3,1.4h1.6v-0.6h0.9v0.3h2v1v0.2v1.1H11V34h-0.7v-0.6H9  c0.7,1,1.8,1.7,3.1,1.7c2.1,0,3.7-1.7,3.7-3.7S14.2,27.7,12.1,27.7z"/><polygon points="13,33.7 11.2,33.7 11.2,34 11.2,34.6 13,34.6 "/><rect x="11.2" y="32.7" width="1.8" height="0.8"/><path d="M6.2,33.4l-0.7,1.7h2.7l0.7-0.8c-0.3-0.3-0.5-0.6-0.7-0.9H6.2z"/><path d="M8,32.8c-0.1-0.4-0.2-0.9-0.2-1.4c0-1.5,0.8-2.8,2-3.6L8.5,28l-2,4.8H8z"/><polygon points="19,27 16.7,28.8 17,29.3 20.4,28.2 "/><polygon points="16.3,26.8 15.5,27.7 16.3,28.2 18.1,26.8 "/><path d="M26.6,30.8h-4.4l-1-2.7l-2.2-1.9h-2.1l0.1-0.7l-9.1,2l-2.2,5.3h0.4l2.1-5l2.9-0.5l-0.8,0.4C9,28.3,8,29.8,8,31.4  c0,0.5,0.1,0.9,0.2,1.4h0.2c-0.2-0.4-0.2-0.9-0.2-1.4c0-2.2,1.8-4,4-4s4,1.8,4,4s-1.8,4-4,4c-1.4,0-2.7-0.8-3.4-1.9H8.5  c0.2,0.3,0.4,0.6,0.6,0.8l0.1,0.1l-0.9,1H5.1l0.8-1.9H5.5l-0.9,2.1h3.7l1,2.8h0.4V36h1.1v2.3h0.3V36h1.1v2.3h0.3V36h1.1v2.3h0.1  l0.3-0.2V36h1.1v1l1.6-1.5l3.4-1.1h6.7L26.6,30.8z M14.9,27.6l-1.1-0.3v-0.4l2.2-0.3L14.9,27.6z M15.1,27.7l1.2-1.1h2.6l-2.6,2  L15.1,27.7z M16.4,28.7l2.7-2l1.8,1.6l-3.9,1.3L16.4,28.7z M17,30.8v-1l4-1.4l0.9,2.3L17,30.8z M26.2,33.7h-2v-2h2V33.7z"/><polygon points="17.2,30 17.2,30.5 21.5,30.5 20.8,28.8 "/><polygon points="14.1,27.1 14.8,27.3 15.2,26.9 "/><rect x="28.1" y="25.3" width="0.3" height="7.9"/><rect x="28.6" y="25.3" width="0.3" height="7.9"/><rect x="31.2" y="25.3" width="0.3" height="7.9"/><rect x="30.7" y="25.3" width="0.3" height="7.9"/><rect x="32.2" y="25.3" width="0.3" height="7.9"/><rect x="31.7" y="25.3" width="0.3" height="7.9"/><rect x="30.1" y="25.3" width="0.3" height="7.9"/><rect x="29.6" y="25.3" width="0.3" height="7.9"/><rect x="29.1" y="25.3" width="0.3" height="7.9"/><rect x="34.8" y="25.3" width="0.3" height="7.9"/><rect x="34.3" y="25.3" width="0.3" height="7.9"/><rect x="35.3" y="25.3" width="0.3" height="7.9"/><rect x="33.2" y="25.3" width="0.3" height="7.9"/><rect x="32.7" y="25.3" width="0.3" height="7.9"/><rect x="33.8" y="25.3" width="0.3" height="7.9"/><rect x="29.6" y="25.1" width="0.3" height="8.4"/><rect x="30.7" y="25.1" width="0.3" height="8.4"/><rect x="31.7" y="25.1" width="0.3" height="8.4"/><rect x="32.7" y="25.1" width="0.3" height="8.4"/><rect x="33.8" y="25.1" width="0.3" height="8.4"/><rect x="34.8" y="25.1" width="0.3" height="8.4"/><polygon points="38.5,42.6 35.1,50.4 36.2,50.9 "/><polygon points="46.5,32.5 45.3,33.5 35.9,33.5 36.2,35.2 50.1,35.2 50.1,32.5 "/><path d="M47.6,42.5c0.6-2.3-0.7-4.6-3-5.2c-0.4-0.1-0.8-0.2-1.1-0.2c-1.9,0-3.6,1.2-4.1,3.1c-0.6,2.3,0.7,4.6,3,5.2  c1.1,0.3,2.2,0.2,3.2-0.4C46.6,44.5,47.3,43.6,47.6,42.5z"/><path d="M45.7,45.3c-0.7,0.4-1.4,0.6-2.2,0.6c-0.4,0-0.8-0.1-1.2-0.2c-1.9-0.5-3.2-2.2-3.3-4.1l-2.7,9.7l8.2,2.3l2.7-9.7  C46.8,44.5,46.3,45,45.7,45.3z"/><path d="M39.7,58.7c-0.6-0.3-1.2-0.5-1.9-0.5c-0.3,0-0.7,0-1,0.1c-1,0.3-1.8,0.9-2.3,1.8C34.1,61,34,62,34.2,62.9  c0.3,1,0.9,1.8,1.8,2.3c1.8,1,4.1,0.4,5.1-1.4C42.1,62,41.5,59.7,39.7,58.7z"/><path d="M36.8,58.1c1-0.3,2.1-0.1,3,0.4c1.2,0.7,1.9,1.8,2,3.1l2.2-7.9l-7.2-2l-2.2,8C35.1,58.9,35.9,58.4,36.8,58.1z"/><path d="M39.7,58.7c-0.6-0.3-1.2-0.5-1.9-0.5c-0.3,0-0.7,0-1,0.1c-1,0.3-1.8,0.9-2.3,1.8c-0.1,0.2-0.2,0.5-0.3,0.7l7.2,2l0.1-0.2  C41.8,61.1,41.1,59.5,39.7,58.7z"/><path d="M37.8,66c-0.7,0-1.4-0.2-2-0.5c-0.9-0.5-1.6-1.4-1.9-2.4L32.7,71l6.7,1.1l1.1-7.2C39.8,65.6,38.8,66,37.8,66z"/><path d="M34,61L34,61l0.8-2.9c-0.5,0-0.9,0.1-1.4,0.3c-0.9,0.4-1.7,1.1-2.1,2c-0.8,1.9,0,4.1,1.9,4.9c0,0,0.1,0,0.1,0l0.5-3  C33.8,61.9,33.8,61.4,34,61z"/><path d="M41.3,64c-0.1,0.2-0.2,0.4-0.4,0.5L40,70.1l3.7-3.6L41.3,64z"/><path d="M57.8,41.3c0.5,0.8,1.3,1.3,2.3,1.3c1,0,1.8-0.5,2.3-1.3H57.8z"/><path d="M59.4,42.8c-0.8-0.2-1.5-0.7-1.9-1.5H57l-1.2-3.2l-5.5-2.4h0.5v-0.4h-0.4v0.1h-8.8c-1.4,1-2.3,2.6-2.3,4.4c0,0,0,0,0,0  c0.4-1,1.1-1.9,2-2.4c0.7-0.4,1.4-0.6,2.2-0.6c0.4,0,0.8,0.1,1.2,0.2c2.4,0.6,3.8,3.1,3.2,5.4l0,0L47.1,45L59.4,42.8z"/><path d="M69.9,41.3h-3.1c0.1,0.1,0.2,0.3,0.3,0.4c0,0,0,0,0.1,0.1c0,0,0.1,0.1,0.1,0.1c0,0,0.1,0.1,0.1,0.1c0,0,0.1,0,0.1,0.1  c0,0,0.1,0.1,0.1,0.1c0,0,0.1,0,0.1,0.1c0,0,0.1,0.1,0.1,0.1c0,0,0,0,0.1,0c0.1,0,0.1,0.1,0.2,0.1c0,0,0,0,0.1,0  c0.1,0,0.1,0.1,0.2,0.1c0,0,0,0,0,0c0.3,0.1,0.5,0.1,0.8,0.1c1.5,0,2.7-1.2,2.7-2.7c0-0.6-0.2-1.2-0.6-1.7L69.9,41.3z"/><rect x="44.3" y="79.5" transform="matrix(-0.7613 -0.6484 0.6484 -0.7613 26.0585 170.6618)" width="0.3" height="2"/><rect x="51.4" y="71.2" transform="matrix(-0.7612 -0.6485 0.6485 -0.7612 43.9344 160.6008)" width="0.3" height="2"/><path d="M43,75.6l-2-0.1c-0.1,1.8,0.5,3.7,1.9,5l1.3-1.5c-0.7-0.7-1.2-1.7-1.2-2.8C42.9,76,42.9,75.8,43,75.6z"/><path d="M47.9,69.5l0,2c0.7,0.1,1.4,0.3,2.1,0.8l1.3-1.5C50.3,70,49.1,69.5,47.9,69.5z"/><polygon points="39.5,72.3 32.7,71.2 30.4,74.5 32.5,77.6 37.6,78.4 40.6,76.1 "/><path d="M39.6,77.1l-1.6,1.2c0.6,0.7,1,1.5,1.1,2.5h2C41,79.4,40.5,78.2,39.6,77.1z"/><path d="M31.1,75.9c-1.6,1.1-2.7,2.9-2.9,4.9h2c0.1-1.4,0.9-2.6,2-3.3L31.1,75.9z"/><polygon points="47.6,68 43.9,66.6 39.9,70.5 39.7,72.2 40.6,75.2 44,75.4 47.7,71.7 "/><polygon points="38.6,83.7 37.7,79.9 31.6,79.9 30.8,83.7 "/><polygon points="46.7,80.4 51.8,74.5 48.4,72.7 44.4,77.3 "/><polygon points="51.6,82.3 54.4,79 55.3,79.9 57.9,76.8 54.6,73.9 46.6,83.3 49.9,86.1 52.6,83 "/><path d="M72.7,65.8c-0.3,0.1-0.7,0.1-1,0.1c-0.7,0-1.4-0.2-2-0.5c-0.9-0.5-1.6-1.4-1.9-2.4L66.6,71l6.7,1.1l1.1-7.2  C73.9,65.3,73.4,65.7,72.7,65.8z"/><polygon points="76.7,44.7 73.7,50 79.5,53.3 78.4,45 "/><path d="M82.1,59.3c0.6-0.9,1.6-1.4,2.6-1.6c1.1-0.1,2.1,0.1,3,0.8c0.5,0.4,0.8,0.8,1.1,1.3l-1-7l-7.4,1l1,7  C81.5,60.3,81.7,59.8,82.1,59.3z"/><path d="M80.2,54.6L80.1,54l-0.5,0.1l-0.1-0.4L74,50.4l-4.9,8.5c0.4-0.4,1-0.6,1.5-0.8c1-0.3,2.1-0.1,3,0.4c1.5,0.9,2.2,2.5,1.9,4.1  L80.2,54.6z"/><path d="M88.9,63.4c-0.1,0.3-0.3,0.5-0.5,0.8c-0.6,0.9-1.6,1.4-2.6,1.6c-0.2,0-0.4,0-0.6,0c-0.9,0-1.7-0.3-2.4-0.8  c-0.3-0.2-0.5-0.4-0.7-0.6l1,7.3l6.7-0.9L88.9,63.4z"/><path d="M78.2,42.4c0.3,2.3,2.5,3.9,4.8,3.6c2.3-0.3,3.9-2.5,3.6-4.8c-0.3-2.1-2.1-3.7-4.2-3.7c-0.2,0-0.4,0-0.6,0  C79.5,37.9,77.9,40.1,78.2,42.4z"/><path d="M86.9,42.6c-0.4,1.8-1.8,3.3-3.8,3.6c-0.2,0-0.4,0-0.6,0c-1.7,0-3.3-1-4-2.5l1.4,10l8.4-1.2L86.9,42.6z"/><polygon points="77.8,33.5 76.5,32.5 72.9,32.5 72.9,35.2 93,35.2 92.8,31.8 83.8,31.8 82.7,33.5 "/><path d="M84.8,35.5h-8.3l-4.5,1L71.3,38c0.4,0.5,0.7,1.2,0.7,1.9c0,1.4-1,2.6-2.4,2.9l8.7,2L78,42.3l0,0c-0.3-2.4,1.4-4.6,3.8-5  c2.4-0.3,4.7,1.3,5.1,3.7l0,0l0,0.1c0,0,0,0,0,0c0,0,0,0,0,0l0,0.1c0.1-0.4,0.2-0.9,0.2-1.4C87.1,38.1,86.2,36.5,84.8,35.5z"/><rect x="72.9" y="81.8" width="2" height="0.3"/><path d="M74.8,80.8c-0.1-1.4-0.6-2.6-1.4-3.6l-1.6,1.2c0.6,0.7,0.9,1.5,1,2.4H74.8z"/><path d="M63.9,80.8c0.1-1.4,0.9-2.6,2.1-3.3l-1.1-1.6c-1.7,1.1-2.8,2.9-2.9,5H63.9z"/><rect x="61.9" y="81.8" width="2" height="0.3"/><path d="M83.1,76.8c-1,1.1-1.6,2.4-1.7,4h2c0.1-1.1,0.6-2,1.3-2.7L83.1,76.8z"/><path d="M91.3,75.9l-1.1,1.6c1.1,0.7,1.9,1.9,2,3.3h2C94.1,78.8,93,77,91.3,75.9z"/><polygon points="91.7,83.7 90.8,79.9 84.7,79.9 83.9,83.7 "/><polygon points="84.2,81.1 81,81.1 81,81.6 84.1,81.6 "/><polygon points="91.4,81.1 91.5,81.6 94.5,81.6 94.5,81.1 "/><polygon points="74,84.6 72.4,83.9 64.4,83.9 62.8,84.6 "/><rect x="62.3" y="84.8" width="12.3" height="0.4"/><polygon points="74.8,88.9 74.8,89.8 78,89.8 78,89.7 "/><polygon points="58.8,89.7 58.8,89.8 62,89.8 62,88.9 "/><rect x="66.5" y="88.8" width="3.9" height="1"/><polygon points="62.3,85.4 62.3,89.8 66.2,89.8 66.2,88.6 70.6,88.6 70.6,89.8 74.5,89.8 74.5,85.4 "/><polygon points="72.3,83.7 71.5,79.9 65.3,79.9 64.5,83.7 "/><polygon points="64.8,81.1 61.6,81.1 61.6,81.6 64.7,81.6 "/><polygon points="72,81.1 72.1,81.6 75.2,81.6 75.2,81.1 "/></svg>